<svg width="81" height="44" viewBox="0 0 81 44" fill="none" xmlns="http://www.w3.org/2000/svg">
<path d="M46.1017 6.10352e-05H34.6167L46.1017 31.058H57.7484L54.8368 23.2935L57.7484 15.529L63.5718 31.058H75.0568L72.1451 23.2935L80.8801 6.10352e-05H75.0568L69.2334 15.529L63.41 6.10352e-05H51.9251L54.8368 7.60279L51.9251 15.529L46.1017 6.10352e-05Z" fill="#EA514D"/>
<path d="M34.7784 31.058L46.2634 31.058L34.7784 1.61621e-05L23.1317 1.51439e-05L26.0434 7.76451L23.1317 15.529L17.3083 1.46348e-05L5.82337 1.36308e-05L8.73505 7.76451L0 31.058L5.82337 31.058L11.6467 15.529L17.4701 31.058L28.9551 31.058L26.0434 23.4553L28.9551 15.529L34.7784 31.058Z" fill="#172844"/>
<path d="M3.8147e-06 43.9484L0.740231 37.579H1.96247L3.42571 42.4593L4.88034 37.579H6.09397L6.8428 43.9484H5.61196L5.06109 39.2574L5.25906 39.2746L4.011 43.9484H2.81459L1.54932 39.2746L1.7645 39.266L1.23085 43.9484H3.8147e-06Z" fill="#172844"/>
<path d="M9.15198 43.9914C9.01426 43.9914 8.85646 43.977 8.67858 43.9484C8.50069 43.9254 8.32855 43.868 8.16214 43.7762C8.00147 43.6844 7.86662 43.5467 7.7576 43.3631C7.65431 43.1737 7.60266 42.9155 7.60266 42.5884V39.0336C7.60266 38.7524 7.6457 38.5172 7.73177 38.3278C7.81785 38.1384 7.93261 37.9892 8.07607 37.8802C8.21952 37.7712 8.37732 37.6937 8.54947 37.6478C8.72161 37.6019 8.89089 37.579 9.0573 37.579C9.48766 37.579 9.86638 37.5847 10.1935 37.5962C10.5263 37.6076 10.8247 37.622 11.0886 37.6392C11.3526 37.6507 11.5936 37.6679 11.8116 37.6909V38.7582H9.43602C9.25813 38.7582 9.12042 38.8012 9.02287 38.8873C8.92532 38.9733 8.87654 39.1053 8.87654 39.2832V40.2042L11.3985 40.273V41.2801L8.87654 41.349V42.2269C8.87654 42.3761 8.8995 42.4937 8.9454 42.5798C8.99705 42.6601 9.06304 42.7175 9.14337 42.7519C9.22944 42.7806 9.31839 42.795 9.4102 42.795H11.8116V43.8623C11.5592 43.891 11.278 43.9139 10.9681 43.9311C10.664 43.9484 10.3541 43.9627 10.0385 43.9742C9.72867 43.9857 9.43315 43.9914 9.15198 43.9914Z" fill="#172844"/>
<path d="M12.7385 43.9484V37.579H14.0123V43.9484H12.7385Z" fill="#172844"/>
<path d="M15.1603 43.9484V37.579H16.1845L18.8528 41.7793V37.579H20.1267V43.9484H19.1024L16.4428 39.748V43.9484H15.1603Z" fill="#172844"/>
<path d="M22.727 43.9914C22.5892 43.9914 22.4314 43.977 22.2536 43.9484C22.0757 43.9254 21.9035 43.868 21.7371 43.7762C21.5765 43.6844 21.4416 43.5467 21.3326 43.3631C21.2293 43.1737 21.1776 42.9155 21.1776 42.5884V39.0336C21.1776 38.7524 21.2207 38.5172 21.3068 38.3278C21.3928 38.1384 21.5076 37.9892 21.651 37.8802C21.7945 37.7712 21.9523 37.6937 22.1244 37.6478C22.2966 37.6019 22.4659 37.579 22.6323 37.579C23.0626 37.579 23.4414 37.5847 23.7684 37.5962C24.1013 37.6076 24.3996 37.622 24.6636 37.6392C24.9276 37.6507 25.1686 37.6679 25.3866 37.6909V38.7582H23.011C22.8331 38.7582 22.6954 38.8012 22.5978 38.8873C22.5003 38.9733 22.4515 39.1053 22.4515 39.2832V40.2042L24.9735 40.273V41.2801L22.4515 41.349V42.2269C22.4515 42.3761 22.4745 42.4937 22.5204 42.5798C22.572 42.6601 22.638 42.7175 22.7183 42.7519C22.8044 42.7806 22.8934 42.795 22.9852 42.795H25.3866V43.8623C25.1341 43.891 24.853 43.9139 24.5431 43.9311C24.239 43.9484 23.9291 43.9627 23.6135 43.9742C23.3036 43.9857 23.0081 43.9914 22.727 43.9914Z" fill="#172844"/>
<path d="M29.6515 43.9484L28.128 37.579H29.4449L30.4692 42.072L31.6656 37.579H32.8362L34.024 42.072L35.0482 37.579H36.3651L34.8417 43.9484H33.542L32.2509 39.4553L30.9512 43.9484H29.6515Z" fill="#172844"/>
<path d="M39.4418 44C39.0057 44 38.6241 43.9598 38.297 43.8795C37.9699 43.7934 37.6945 43.6385 37.4707 43.4147C37.2527 43.1852 37.0891 42.8581 36.9801 42.4335C36.8711 42.0088 36.8166 41.4551 36.8166 40.7723C36.8166 40.0894 36.8711 39.5357 36.9801 39.1111C37.0949 38.6807 37.2613 38.3507 37.4793 38.1212C37.6974 37.8917 37.9699 37.7339 38.297 37.6478C38.6241 37.5617 39.0057 37.5187 39.4418 37.5187C39.8779 37.5187 40.2595 37.5617 40.5866 37.6478C40.9136 37.7339 41.1862 37.8917 41.4042 38.1212C41.6223 38.3507 41.7858 38.6807 41.8949 39.1111C42.0039 39.5357 42.0584 40.0894 42.0584 40.7723C42.0584 41.4551 42.0039 42.0088 41.8949 42.4335C41.7858 42.8581 41.6223 43.1852 41.4042 43.4147C41.1862 43.6385 40.9136 43.7934 40.5866 43.8795C40.2595 43.9598 39.8779 44 39.4418 44ZM39.4418 42.8552C39.7 42.8552 39.9152 42.8265 40.0873 42.7692C40.2595 42.7118 40.3943 42.6114 40.4919 42.4679C40.5952 42.3187 40.6698 42.1093 40.7157 41.8396C40.7616 41.5641 40.7845 41.2084 40.7845 40.7723C40.7845 40.3132 40.7616 39.946 40.7157 39.6705C40.6698 39.3951 40.5952 39.1857 40.4919 39.0422C40.3943 38.893 40.2595 38.7926 40.0873 38.7409C39.9152 38.6893 39.7 38.6635 39.4418 38.6635C39.195 38.6635 38.9856 38.6893 38.8134 38.7409C38.6413 38.7926 38.5007 38.893 38.3917 39.0422C38.2884 39.1857 38.2109 39.3951 38.1593 39.6705C38.1134 39.946 38.0904 40.3132 38.0904 40.7723C38.0904 41.2084 38.1105 41.5641 38.1507 41.8396C38.1966 42.1093 38.2712 42.3187 38.3745 42.4679C38.4778 42.6114 38.6155 42.7118 38.7876 42.7692C38.9655 42.8265 39.1836 42.8552 39.4418 42.8552Z" fill="#172844"/>
<path d="M42.9985 43.9484V37.579H44.2724V40.23H46.6738V37.579H47.9563V43.9484H46.6738V41.3748H44.2724V43.9484H42.9985Z" fill="#172844"/>
<path d="M49.0935 43.9484V37.579H50.1178L52.786 41.7793V37.579H54.0599V43.9484H53.0357L50.376 39.748V43.9484H49.0935Z" fill="#172844"/>
<path d="M55.1109 43.9484V37.579H57.7447C57.9972 37.579 58.2325 37.6105 58.4505 37.6736C58.6686 37.731 58.8608 37.8343 59.0272 37.9835C59.1936 38.1327 59.3227 38.3393 59.4145 38.6032C59.5121 38.8672 59.5609 39.2057 59.5609 39.6189C59.5609 39.9115 59.5322 40.1611 59.4748 40.3677C59.4174 40.5743 59.3399 40.7436 59.2424 40.8756C59.1506 41.0075 59.0444 41.1137 58.9239 41.194C58.8034 41.2744 58.68 41.3403 58.5538 41.392L59.7416 43.9484H58.4419L57.4176 41.59C57.3488 41.59 57.2685 41.59 57.1766 41.59C57.0906 41.5842 57.0016 41.5814 56.9098 41.5814C56.818 41.5814 56.7262 41.5814 56.6344 41.5814C56.5426 41.5814 56.4594 41.5785 56.3848 41.5727V43.9484H55.1109ZM56.3848 40.5657H57.5209C57.6357 40.5657 57.739 40.5513 57.8308 40.5227C57.9226 40.494 58.0029 40.4452 58.0718 40.3763C58.1407 40.3017 58.1923 40.2042 58.2267 40.0837C58.2669 39.9632 58.287 39.8082 58.287 39.6189C58.287 39.441 58.2669 39.2947 58.2267 39.1799C58.1923 39.0594 58.1407 38.9676 58.0718 38.9045C58.0029 38.8356 57.9226 38.7897 57.8308 38.7668C57.739 38.7381 57.6357 38.7237 57.5209 38.7237H56.3848V40.5657Z" fill="#172844"/>
<path d="M62.0566 43.9914C61.9189 43.9914 61.7611 43.977 61.5832 43.9484C61.4053 43.9254 61.2331 43.868 61.0667 43.7762C60.9061 43.6844 60.7712 43.5467 60.6622 43.3631C60.5589 43.1737 60.5073 42.9155 60.5073 42.5884V39.0336C60.5073 38.7524 60.5503 38.5172 60.6364 38.3278C60.7224 38.1384 60.8372 37.9892 60.9807 37.8802C61.1241 37.7712 61.2819 37.6937 61.4541 37.6478C61.6262 37.6019 61.7955 37.579 61.9619 37.579C62.3923 37.579 62.771 37.5847 63.0981 37.5962C63.4309 37.6076 63.7293 37.622 63.9932 37.6392C64.2572 37.6507 64.4982 37.6679 64.7162 37.6909V38.7582H62.3406C62.1627 38.7582 62.025 38.8012 61.9275 38.8873C61.8299 38.9733 61.7811 39.1053 61.7811 39.2832V40.2042L64.3031 40.273V41.2801L61.7811 41.349V42.2269C61.7811 42.3761 61.8041 42.4937 61.85 42.5798C61.9016 42.6601 61.9676 42.7175 62.048 42.7519C62.134 42.7806 62.223 42.795 62.3148 42.795H64.7162V43.8623C64.4637 43.891 64.1826 43.9139 63.8727 43.9311C63.5686 43.9484 63.2587 43.9627 62.9431 43.9742C62.6333 43.9857 62.3377 43.9914 62.0566 43.9914Z" fill="#172844"/>
<path d="M65.6861 43.9484V37.579H66.7104L69.3786 41.7793V37.579H70.6525V43.9484H69.6282L66.9686 39.748V43.9484H65.6861Z" fill="#172844"/>
<path d="M73.0376 43.9484V38.7237H71.2903V37.579H76.0674V38.7237H74.3115V43.9484H73.0376Z" fill="#172844"/>
<path d="M78.2205 43.9914C78.0827 43.9914 77.9249 43.977 77.7471 43.9484C77.5692 43.9254 77.397 43.868 77.2306 43.7762C77.07 43.6844 76.9351 43.5467 76.8261 43.3631C76.7228 43.1737 76.6712 42.9155 76.6712 42.5884V39.0336C76.6712 38.7524 76.7142 38.5172 76.8003 38.3278C76.8863 38.1384 77.0011 37.9892 77.1446 37.8802C77.288 37.7712 77.4458 37.6937 77.618 37.6478C77.7901 37.6019 77.9594 37.579 78.1258 37.579C78.5561 37.579 78.9349 37.5847 79.2619 37.5962C79.5948 37.6076 79.8931 37.622 80.1571 37.6392C80.4211 37.6507 80.6621 37.6679 80.8801 37.6909V38.7582H78.5045C78.3266 38.7582 78.1889 38.8012 78.0914 38.8873C77.9938 38.9733 77.945 39.1053 77.945 39.2832V40.2042L80.467 40.273V41.2801L77.945 41.349V42.2269C77.945 42.3761 77.968 42.4937 78.0139 42.5798C78.0655 42.6601 78.1315 42.7175 78.2119 42.7519C78.2979 42.7806 78.3869 42.795 78.4787 42.795H80.8801V43.8623C80.6276 43.891 80.3465 43.9139 80.0366 43.9311C79.7325 43.9484 79.4226 43.9627 79.107 43.9742C78.7972 43.9857 78.5016 43.9914 78.2205 43.9914Z" fill="#172844"/>
</svg>
