<svg width="40" height="40" viewBox="0 0 40 40" fill="none" xmlns="http://www.w3.org/2000/svg">
<rect width="40" height="40" rx="20" fill="#B1E5FC"/>
<path fill-rule="evenodd" clip-rule="evenodd" d="M20.0001 10C17.7909 10 16.0001 11.7909 16.0001 14H14.6484C13.1354 14 11.8592 15.1266 11.6716 16.6279L10.4216 26.6279C10.1977 28.4185 11.5939 30 13.3984 30H26.6017C28.4062 30 29.8024 28.4185 29.5785 26.6279L28.3285 16.6279C28.1409 15.1266 26.8647 14 25.3517 14H24.0001C24.0001 11.7909 22.2092 10 20.0001 10ZM22.0001 16V17C22.0001 17.5523 22.4478 18 23.0001 18C23.5523 18 24.0001 17.5523 24.0001 17V16H25.3517C25.856 16 26.2814 16.3755 26.344 16.876L27.594 26.876C27.6686 27.4728 27.2032 28 26.6017 28H13.3984C12.7969 28 12.3315 27.4728 12.4061 26.876L13.6561 16.876C13.7187 16.3755 14.1441 16 14.6484 16H16.0001V17C16.0001 17.5523 16.4478 18 17.0001 18C17.5523 18 18.0001 17.5523 18.0001 17V16H22.0001ZM22.0001 14C22.0001 12.8954 21.1046 12 20.0001 12C18.8955 12 18.0001 12.8954 18.0001 14H22.0001Z" fill="#1A1D1F"/>
</svg>
