<svg width="40" height="40" viewBox="0 0 40 40" fill="none" xmlns="http://www.w3.org/2000/svg">
<rect width="40" height="40" rx="20" fill="#CABDFF"/>
<path fill-rule="evenodd" clip-rule="evenodd" d="M17.4889 13.0542C17.376 12.5272 16.624 12.5272 16.5111 13.0542L15.3166 18.6286C15.0202 20.0118 13.7978 21 12.3832 21H11C10.4477 21 10 20.5523 10 20C10 19.4477 10.4477 19 11 19H12.3832C12.8547 19 13.2622 18.6706 13.361 18.2096L14.5555 12.6351C15.1201 10.0002 18.8799 10.0002 19.4445 12.6351L22.5111 26.9459C22.624 27.4729 23.376 27.4728 23.4889 26.9459L24.6834 21.3714C24.9798 19.9882 26.2022 19 27.6168 19H29C29.5523 19 30 19.4477 30 20C30 20.5523 29.5523 21 29 21H27.6168C27.1453 21 26.7378 21.3294 26.639 21.7905L25.4445 27.3649C24.8799 29.9999 21.1201 29.9998 20.5555 27.3649L17.4889 13.0542Z" fill="#1A1D1F"/>
</svg>
