<svg width="48" height="48" viewBox="0 0 48 48" fill="none" xmlns="http://www.w3.org/2000/svg">
<rect width="48" height="48" rx="24" fill="#FFE7E4"/>
<path fill-rule="evenodd" clip-rule="evenodd" d="M17.5858 19L21.8787 14.7071C23.0503 13.5355 24.9498 13.5355 26.1213 14.7071L30.4142 19H32.847C33.4555 19 33.923 19.539 33.8369 20.1414L32.368 30.4243C32.1568 31.9022 30.8911 33 29.3981 33H18.6019C17.1089 33 15.8432 31.9022 15.632 30.4243L14.1631 20.1414C14.077 19.539 14.5445 19 15.153 19H17.5858ZM23.2929 16.1213C23.6834 15.7308 24.3166 15.7308 24.7071 16.1213L27.5858 19L20.4142 19L23.2929 16.1213ZM16.306 21L17.6119 30.1414C17.6823 30.6341 18.1042 31 18.6019 31H29.3981C29.8958 31 30.3177 30.6341 30.3881 30.1414L31.694 21H16.306Z" fill="#FF6A55"/>
<path fill-rule="evenodd" clip-rule="evenodd" d="M20 23C20.5523 23 21 23.4477 21 24V28C21 28.5523 20.5523 29 20 29C19.4477 29 19 28.5523 19 28V24C19 23.4477 19.4477 23 20 23Z" fill="#FF6A55"/>
<path fill-rule="evenodd" clip-rule="evenodd" d="M24 23C24.5523 23 25 23.4477 25 24V28C25 28.5523 24.5523 29 24 29C23.4477 29 23 28.5523 23 28V24C23 23.4477 23.4477 23 24 23Z" fill="#FF6A55"/>
<path fill-rule="evenodd" clip-rule="evenodd" d="M28 23C28.5523 23 29 23.4477 29 24V28C29 28.5523 28.5523 29 28 29C27.4477 29 27 28.5523 27 28V24C27 23.4477 27.4477 23 28 23Z" fill="#FF6A55"/>
</svg>
