<svg width="24" height="24" viewBox="0 0 24 24" fill="none" xmlns="http://www.w3.org/2000/svg">
<path fill-rule="evenodd" clip-rule="evenodd" d="M12.7277 5.65688L9.87846 2.80763C8.70689 1.63606 6.80739 1.63606 5.63582 2.80763L2.80739 5.63606C1.63582 6.80763 1.63582 8.70713 2.80739 9.8787L4.21499 11.2863L4.22161 11.293L4.22829 11.2996L5.65664 12.7279L3.45653 14.9281C3.31693 15.0677 3.22177 15.2455 3.18305 15.4391L2.12239 20.7424C1.98245 21.4421 2.59937 22.059 3.29909 21.9191L8.60239 20.8584C8.79598 20.8197 8.97378 20.7245 9.11338 20.5849L11.3135 18.3848L14.1211 21.1924C15.2927 22.364 17.1922 22.364 18.3637 21.1924L21.1922 18.364C22.3637 17.1924 22.3637 15.2929 21.1922 14.1213L18.3846 11.3137L20.9201 8.77821C22.0917 7.60664 22.0917 5.70714 20.9201 4.53557L19.5059 3.12136C18.3343 1.94978 16.4348 1.94978 15.2632 3.12136L12.7277 5.65688ZM4.2216 7.05028C3.83108 7.4408 3.83108 8.07396 4.2216 8.46449L4.92874 9.17163L6.34293 7.75745C6.73345 7.36692 7.36662 7.36692 7.75714 7.75745C8.14767 8.14797 8.14767 8.78114 7.75714 9.17166L6.34296 10.5858L7.07085 11.3137L11.3135 7.07109L8.46424 4.22185C8.07372 3.83132 7.44056 3.83132 7.05003 4.22185L4.2216 7.05028ZM16.9703 12.7279L12.7277 16.9706L13.414 17.6569L14.1211 16.9498C14.5116 16.5593 15.1448 16.5593 15.5353 16.9498C15.9258 17.3403 15.9258 17.9735 15.5353 18.364L14.8282 19.0711L15.5353 19.7782C15.9258 20.1687 16.559 20.1687 16.9495 19.7782L19.778 16.9498C20.1685 16.5592 20.1685 15.9261 19.778 15.5356L16.9703 12.7279ZM19.5059 5.94978L18.0917 4.53557C17.7011 4.14504 17.068 4.14504 16.6775 4.53557L15.2632 5.9498L18.0917 8.77823L19.5059 7.364C19.8964 6.97347 19.8964 6.34031 19.5059 5.94978ZM5.08483 16.1282L13.849 7.36402L16.6774 10.1924L7.91326 18.9566L4.37773 19.6637L5.08483 16.1282Z" fill="#1A1D1F"/>
</svg>
